<mxfile host="65bd71144e">
    <diagram name="Page-1" id="NpB9seTG7OIaZE01cQ_W">
        <mxGraphModel dx="2122" dy="1211" grid="0" gridSize="10" guides="1" tooltips="1" connect="1" arrows="1" fold="1" page="0" pageScale="1" pageWidth="827" pageHeight="1169" background="#01010E" math="0" shadow="0">
            <root>
                <mxCell id="0"/>
                <mxCell id="1" parent="0"/>
                <mxCell id="a_mR20tuXjC3Zlg9Piwa-14" style="edgeStyle=orthogonalEdgeStyle;rounded=0;orthogonalLoop=1;jettySize=auto;html=1;exitX=0.5;exitY=0;exitDx=0;exitDy=0;" parent="1" source="TZVktLVVKrQjs7F4-dLv-7" target="a_mR20tuXjC3Zlg9Piwa-1" edge="1">
                    <mxGeometry relative="1" as="geometry"/>
                </mxCell>
                <mxCell id="a_mR20tuXjC3Zlg9Piwa-15" value="switchTab(tabs: enum)" style="edgeLabel;html=1;align=center;verticalAlign=middle;resizable=0;points=[];" parent="a_mR20tuXjC3Zlg9Piwa-14" vertex="1" connectable="0">
                    <mxGeometry x="0.254" y="2" relative="1" as="geometry">
                        <mxPoint as="offset"/>
                    </mxGeometry>
                </mxCell>
                <mxCell id="a_mR20tuXjC3Zlg9Piwa-16" value="getActiveTab()" style="edgeLabel;html=1;align=center;verticalAlign=middle;resizable=0;points=[];" parent="a_mR20tuXjC3Zlg9Piwa-14" vertex="1" connectable="0">
                    <mxGeometry x="-0.0839" y="1" relative="1" as="geometry">
                        <mxPoint x="1" y="10" as="offset"/>
                    </mxGeometry>
                </mxCell>
                <mxCell id="a_mR20tuXjC3Zlg9Piwa-41" value="forwardInput(inputID[])" style="edgeLabel;html=1;align=center;verticalAlign=middle;resizable=0;points=[];" parent="a_mR20tuXjC3Zlg9Piwa-14" vertex="1" connectable="0">
                    <mxGeometry x="-0.6917" y="-2" relative="1" as="geometry">
                        <mxPoint as="offset"/>
                    </mxGeometry>
                </mxCell>
                <mxCell id="TZVktLVVKrQjs7F4-dLv-7" value="PipBoy" style="swimlane;fontStyle=0;childLayout=stackLayout;horizontal=1;startSize=30;horizontalStack=0;resizeParent=1;resizeParentMax=0;resizeLast=0;collapsible=1;marginBottom=0;whiteSpace=wrap;html=1;autosize=0;comic=0;enumerate=0;moveCells=0;backgroundOutline=0;" parent="1" vertex="1">
                    <mxGeometry x="-79" y="300" width="140" height="120" as="geometry"/>
                </mxCell>
                <mxCell id="TZVktLVVKrQjs7F4-dLv-8" value="Item 1" style="text;strokeColor=default;fillColor=none;align=left;verticalAlign=middle;spacingLeft=4;spacingRight=4;overflow=hidden;points=[[0,0.5],[1,0.5]];portConstraint=eastwest;rotatable=0;whiteSpace=wrap;html=1;" parent="TZVktLVVKrQjs7F4-dLv-7" vertex="1">
                    <mxGeometry y="30" width="140" height="30" as="geometry"/>
                </mxCell>
                <mxCell id="TZVktLVVKrQjs7F4-dLv-9" value="Item 2" style="text;strokeColor=default;fillColor=none;align=left;verticalAlign=middle;spacingLeft=4;spacingRight=4;overflow=hidden;points=[[0,0.5],[1,0.5]];portConstraint=eastwest;rotatable=0;whiteSpace=wrap;html=1;" parent="TZVktLVVKrQjs7F4-dLv-7" vertex="1">
                    <mxGeometry y="60" width="140" height="30" as="geometry"/>
                </mxCell>
                <mxCell id="TZVktLVVKrQjs7F4-dLv-10" value="Item 3" style="text;strokeColor=default;fillColor=none;align=left;verticalAlign=middle;spacingLeft=4;spacingRight=4;overflow=hidden;points=[[0,0.5],[1,0.5]];portConstraint=eastwest;rotatable=0;whiteSpace=wrap;html=1;" parent="TZVktLVVKrQjs7F4-dLv-7" vertex="1">
                    <mxGeometry y="90" width="140" height="30" as="geometry"/>
                </mxCell>
                <mxCell id="TZVktLVVKrQjs7F4-dLv-15" value="Tab" style="swimlane;fontStyle=0;childLayout=stackLayout;horizontal=1;startSize=30;horizontalStack=0;resizeParent=1;resizeParentMax=0;resizeLast=0;collapsible=1;marginBottom=0;whiteSpace=wrap;html=1;autosize=0;comic=0;enumerate=0;moveCells=0;backgroundOutline=0;" parent="1" vertex="1">
                    <mxGeometry x="-79" y="-102" width="140" height="120" as="geometry"/>
                </mxCell>
                <mxCell id="TZVktLVVKrQjs7F4-dLv-16" value="Item 1" style="text;strokeColor=default;fillColor=none;align=left;verticalAlign=middle;spacingLeft=4;spacingRight=4;overflow=hidden;points=[[0,0.5],[1,0.5]];portConstraint=eastwest;rotatable=0;whiteSpace=wrap;html=1;" parent="TZVktLVVKrQjs7F4-dLv-15" vertex="1">
                    <mxGeometry y="30" width="140" height="30" as="geometry"/>
                </mxCell>
                <mxCell id="TZVktLVVKrQjs7F4-dLv-17" value="Item 2" style="text;strokeColor=default;fillColor=none;align=left;verticalAlign=middle;spacingLeft=4;spacingRight=4;overflow=hidden;points=[[0,0.5],[1,0.5]];portConstraint=eastwest;rotatable=0;whiteSpace=wrap;html=1;" parent="TZVktLVVKrQjs7F4-dLv-15" vertex="1">
                    <mxGeometry y="60" width="140" height="30" as="geometry"/>
                </mxCell>
                <mxCell id="TZVktLVVKrQjs7F4-dLv-18" value="Item 3" style="text;strokeColor=default;fillColor=none;align=left;verticalAlign=middle;spacingLeft=4;spacingRight=4;overflow=hidden;points=[[0,0.5],[1,0.5]];portConstraint=eastwest;rotatable=0;whiteSpace=wrap;html=1;" parent="TZVktLVVKrQjs7F4-dLv-15" vertex="1">
                    <mxGeometry y="90" width="140" height="30" as="geometry"/>
                </mxCell>
                <mxCell id="TZVktLVVKrQjs7F4-dLv-19" value="StatTab" style="swimlane;fontStyle=0;childLayout=stackLayout;horizontal=1;startSize=30;horizontalStack=0;resizeParent=1;resizeParentMax=0;resizeLast=0;collapsible=1;marginBottom=0;whiteSpace=wrap;html=1;autosize=0;comic=0;enumerate=0;moveCells=0;backgroundOutline=0;" parent="1" vertex="1">
                    <mxGeometry x="-276" y="-278" width="140" height="120" as="geometry"/>
                </mxCell>
                <mxCell id="TZVktLVVKrQjs7F4-dLv-20" value="Item 1" style="text;strokeColor=default;fillColor=none;align=left;verticalAlign=middle;spacingLeft=4;spacingRight=4;overflow=hidden;points=[[0,0.5],[1,0.5]];portConstraint=eastwest;rotatable=0;whiteSpace=wrap;html=1;" parent="TZVktLVVKrQjs7F4-dLv-19" vertex="1">
                    <mxGeometry y="30" width="140" height="30" as="geometry"/>
                </mxCell>
                <mxCell id="TZVktLVVKrQjs7F4-dLv-21" value="Item 2" style="text;strokeColor=default;fillColor=none;align=left;verticalAlign=middle;spacingLeft=4;spacingRight=4;overflow=hidden;points=[[0,0.5],[1,0.5]];portConstraint=eastwest;rotatable=0;whiteSpace=wrap;html=1;" parent="TZVktLVVKrQjs7F4-dLv-19" vertex="1">
                    <mxGeometry y="60" width="140" height="30" as="geometry"/>
                </mxCell>
                <mxCell id="TZVktLVVKrQjs7F4-dLv-22" value="Item 3" style="text;strokeColor=default;fillColor=none;align=left;verticalAlign=middle;spacingLeft=4;spacingRight=4;overflow=hidden;points=[[0,0.5],[1,0.5]];portConstraint=eastwest;rotatable=0;whiteSpace=wrap;html=1;" parent="TZVktLVVKrQjs7F4-dLv-19" vertex="1">
                    <mxGeometry y="90" width="140" height="30" as="geometry"/>
                </mxCell>
                <mxCell id="TZVktLVVKrQjs7F4-dLv-23" value="RadioTab" style="swimlane;fontStyle=0;childLayout=stackLayout;horizontal=1;startSize=30;horizontalStack=0;resizeParent=1;resizeParentMax=0;resizeLast=0;collapsible=1;marginBottom=0;whiteSpace=wrap;html=1;autosize=0;comic=0;enumerate=0;moveCells=0;backgroundOutline=0;" parent="1" vertex="1">
                    <mxGeometry x="112" y="-278" width="140" height="120" as="geometry"/>
                </mxCell>
                <mxCell id="TZVktLVVKrQjs7F4-dLv-24" value="Item 1" style="text;strokeColor=default;fillColor=none;align=left;verticalAlign=middle;spacingLeft=4;spacingRight=4;overflow=hidden;points=[[0,0.5],[1,0.5]];portConstraint=eastwest;rotatable=0;whiteSpace=wrap;html=1;" parent="TZVktLVVKrQjs7F4-dLv-23" vertex="1">
                    <mxGeometry y="30" width="140" height="30" as="geometry"/>
                </mxCell>
                <mxCell id="TZVktLVVKrQjs7F4-dLv-25" value="Item 2" style="text;strokeColor=default;fillColor=none;align=left;verticalAlign=middle;spacingLeft=4;spacingRight=4;overflow=hidden;points=[[0,0.5],[1,0.5]];portConstraint=eastwest;rotatable=0;whiteSpace=wrap;html=1;" parent="TZVktLVVKrQjs7F4-dLv-23" vertex="1">
                    <mxGeometry y="60" width="140" height="30" as="geometry"/>
                </mxCell>
                <mxCell id="TZVktLVVKrQjs7F4-dLv-26" value="Item 3" style="text;strokeColor=default;fillColor=none;align=left;verticalAlign=middle;spacingLeft=4;spacingRight=4;overflow=hidden;points=[[0,0.5],[1,0.5]];portConstraint=eastwest;rotatable=0;whiteSpace=wrap;html=1;" parent="TZVktLVVKrQjs7F4-dLv-23" vertex="1">
                    <mxGeometry y="90" width="140" height="30" as="geometry"/>
                </mxCell>
                <mxCell id="TZVktLVVKrQjs7F4-dLv-27" value="DataTab" style="swimlane;fontStyle=0;childLayout=stackLayout;horizontal=1;startSize=30;horizontalStack=0;resizeParent=1;resizeParentMax=0;resizeLast=0;collapsible=1;marginBottom=0;whiteSpace=wrap;html=1;autosize=0;comic=0;enumerate=0;moveCells=0;backgroundOutline=0;" parent="1" vertex="1">
                    <mxGeometry x="-79" y="-278" width="140" height="120" as="geometry"/>
                </mxCell>
                <mxCell id="TZVktLVVKrQjs7F4-dLv-28" value="Item 1" style="text;strokeColor=default;fillColor=none;align=left;verticalAlign=middle;spacingLeft=4;spacingRight=4;overflow=hidden;points=[[0,0.5],[1,0.5]];portConstraint=eastwest;rotatable=0;whiteSpace=wrap;html=1;" parent="TZVktLVVKrQjs7F4-dLv-27" vertex="1">
                    <mxGeometry y="30" width="140" height="30" as="geometry"/>
                </mxCell>
                <mxCell id="TZVktLVVKrQjs7F4-dLv-29" value="Item 2" style="text;strokeColor=default;fillColor=none;align=left;verticalAlign=middle;spacingLeft=4;spacingRight=4;overflow=hidden;points=[[0,0.5],[1,0.5]];portConstraint=eastwest;rotatable=0;whiteSpace=wrap;html=1;" parent="TZVktLVVKrQjs7F4-dLv-27" vertex="1">
                    <mxGeometry y="60" width="140" height="30" as="geometry"/>
                </mxCell>
                <mxCell id="TZVktLVVKrQjs7F4-dLv-30" value="Item 3" style="text;strokeColor=default;fillColor=none;align=left;verticalAlign=middle;spacingLeft=4;spacingRight=4;overflow=hidden;points=[[0,0.5],[1,0.5]];portConstraint=eastwest;rotatable=0;whiteSpace=wrap;html=1;" parent="TZVktLVVKrQjs7F4-dLv-27" vertex="1">
                    <mxGeometry y="90" width="140" height="30" as="geometry"/>
                </mxCell>
                <mxCell id="TZVktLVVKrQjs7F4-dLv-31" value="InventoryTab" style="swimlane;fontStyle=0;childLayout=stackLayout;horizontal=1;startSize=30;horizontalStack=0;resizeParent=1;resizeParentMax=0;resizeLast=0;collapsible=1;marginBottom=0;whiteSpace=wrap;html=1;autosize=0;comic=0;enumerate=0;moveCells=0;backgroundOutline=0;" parent="1" vertex="1">
                    <mxGeometry x="112" y="-102" width="140" height="120" as="geometry"/>
                </mxCell>
                <mxCell id="TZVktLVVKrQjs7F4-dLv-32" value="Item 1" style="text;strokeColor=default;fillColor=none;align=left;verticalAlign=middle;spacingLeft=4;spacingRight=4;overflow=hidden;points=[[0,0.5],[1,0.5]];portConstraint=eastwest;rotatable=0;whiteSpace=wrap;html=1;" parent="TZVktLVVKrQjs7F4-dLv-31" vertex="1">
                    <mxGeometry y="30" width="140" height="30" as="geometry"/>
                </mxCell>
                <mxCell id="TZVktLVVKrQjs7F4-dLv-33" value="Item 2" style="text;strokeColor=default;fillColor=none;align=left;verticalAlign=middle;spacingLeft=4;spacingRight=4;overflow=hidden;points=[[0,0.5],[1,0.5]];portConstraint=eastwest;rotatable=0;whiteSpace=wrap;html=1;" parent="TZVktLVVKrQjs7F4-dLv-31" vertex="1">
                    <mxGeometry y="60" width="140" height="30" as="geometry"/>
                </mxCell>
                <mxCell id="TZVktLVVKrQjs7F4-dLv-34" value="Item 3" style="text;strokeColor=default;fillColor=none;align=left;verticalAlign=middle;spacingLeft=4;spacingRight=4;overflow=hidden;points=[[0,0.5],[1,0.5]];portConstraint=eastwest;rotatable=0;whiteSpace=wrap;html=1;" parent="TZVktLVVKrQjs7F4-dLv-31" vertex="1">
                    <mxGeometry y="90" width="140" height="30" as="geometry"/>
                </mxCell>
                <mxCell id="TZVktLVVKrQjs7F4-dLv-35" value="MapTab" style="swimlane;fontStyle=0;childLayout=stackLayout;horizontal=1;startSize=30;horizontalStack=0;resizeParent=1;resizeParentMax=0;resizeLast=0;collapsible=1;marginBottom=0;whiteSpace=wrap;html=1;autosize=0;comic=0;enumerate=0;moveCells=0;backgroundOutline=0;" parent="1" vertex="1">
                    <mxGeometry x="-276" y="-102" width="140" height="120" as="geometry"/>
                </mxCell>
                <mxCell id="TZVktLVVKrQjs7F4-dLv-36" value="Item 1" style="text;strokeColor=default;fillColor=none;align=left;verticalAlign=middle;spacingLeft=4;spacingRight=4;overflow=hidden;points=[[0,0.5],[1,0.5]];portConstraint=eastwest;rotatable=0;whiteSpace=wrap;html=1;" parent="TZVktLVVKrQjs7F4-dLv-35" vertex="1">
                    <mxGeometry y="30" width="140" height="30" as="geometry"/>
                </mxCell>
                <mxCell id="TZVktLVVKrQjs7F4-dLv-37" value="Item 2" style="text;strokeColor=default;fillColor=none;align=left;verticalAlign=middle;spacingLeft=4;spacingRight=4;overflow=hidden;points=[[0,0.5],[1,0.5]];portConstraint=eastwest;rotatable=0;whiteSpace=wrap;html=1;" parent="TZVktLVVKrQjs7F4-dLv-35" vertex="1">
                    <mxGeometry y="60" width="140" height="30" as="geometry"/>
                </mxCell>
                <mxCell id="TZVktLVVKrQjs7F4-dLv-38" value="Item 3" style="text;strokeColor=default;fillColor=none;align=left;verticalAlign=middle;spacingLeft=4;spacingRight=4;overflow=hidden;points=[[0,0.5],[1,0.5]];portConstraint=eastwest;rotatable=0;whiteSpace=wrap;html=1;" parent="TZVktLVVKrQjs7F4-dLv-35" vertex="1">
                    <mxGeometry y="90" width="140" height="30" as="geometry"/>
                </mxCell>
                <mxCell id="oDtMXYs0QCIHP4GKAs03-2" value="Speaker" style="swimlane;fontStyle=0;childLayout=stackLayout;horizontal=1;startSize=30;horizontalStack=0;resizeParent=1;resizeParentMax=0;resizeLast=0;collapsible=1;marginBottom=0;whiteSpace=wrap;html=1;autosize=0;comic=0;enumerate=0;moveCells=0;backgroundOutline=0;" parent="1" vertex="1">
                    <mxGeometry x="-79" y="493" width="140" height="120" as="geometry"/>
                </mxCell>
                <mxCell id="oDtMXYs0QCIHP4GKAs03-3" value="Item 1" style="text;strokeColor=default;fillColor=none;align=left;verticalAlign=middle;spacingLeft=4;spacingRight=4;overflow=hidden;points=[[0,0.5],[1,0.5]];portConstraint=eastwest;rotatable=0;whiteSpace=wrap;html=1;" parent="oDtMXYs0QCIHP4GKAs03-2" vertex="1">
                    <mxGeometry y="30" width="140" height="30" as="geometry"/>
                </mxCell>
                <mxCell id="oDtMXYs0QCIHP4GKAs03-4" value="Item 2" style="text;strokeColor=default;fillColor=none;align=left;verticalAlign=middle;spacingLeft=4;spacingRight=4;overflow=hidden;points=[[0,0.5],[1,0.5]];portConstraint=eastwest;rotatable=0;whiteSpace=wrap;html=1;" parent="oDtMXYs0QCIHP4GKAs03-2" vertex="1">
                    <mxGeometry y="60" width="140" height="30" as="geometry"/>
                </mxCell>
                <mxCell id="oDtMXYs0QCIHP4GKAs03-5" value="Item 3" style="text;strokeColor=default;fillColor=none;align=left;verticalAlign=middle;spacingLeft=4;spacingRight=4;overflow=hidden;points=[[0,0.5],[1,0.5]];portConstraint=eastwest;rotatable=0;whiteSpace=wrap;html=1;" parent="oDtMXYs0QCIHP4GKAs03-2" vertex="1">
                    <mxGeometry y="90" width="140" height="30" as="geometry"/>
                </mxCell>
                <mxCell id="nnOfYmQvblicJ7rH4PoG-1" style="edgeStyle=orthogonalEdgeStyle;rounded=0;orthogonalLoop=1;jettySize=auto;html=1;" parent="1" source="oDtMXYs0QCIHP4GKAs03-6" target="a_mR20tuXjC3Zlg9Piwa-17" edge="1">
                    <mxGeometry relative="1" as="geometry"/>
                </mxCell>
                <mxCell id="nnOfYmQvblicJ7rH4PoG-7" value="&lt;span style=&quot;color: rgba(0, 0, 0, 0); font-family: monospace; font-size: 0px; text-align: start;&quot;&gt;%3CmxGraphModel%3E%3Croot%3E%3CmxCell%20id%3D%220%22%2F%3E%3CmxCell%20id%3D%221%22%20parent%3D%220%22%2F%3E%3CmxCell%20id%3D%222%22%20value%3D%22buttonPressed(selectorButtonID)%22%20style%3D%22edgeLabel%3Bhtml%3D1%3Balign%3Dcenter%3BverticalAlign%3Dmiddle%3Bresizable%3D0%3Bpoints%3D%5B%5D%3B%22%20vertex%3D%221%22%20connectable%3D%220%22%20parent%3D%221%22%3E%3CmxGeometry%20x%3D%22418%22%20y%3D%22360%22%20as%3D%22geometry%22%2F%3E%3C%2FmxCell%3E%3C%2Froot%3E%3C%2FmxGraphModel%3E&lt;/span&gt;" style="edgeLabel;html=1;align=center;verticalAlign=middle;resizable=0;points=[];" parent="nnOfYmQvblicJ7rH4PoG-1" vertex="1" connectable="0">
                    <mxGeometry x="-0.3281" y="4" relative="1" as="geometry">
                        <mxPoint as="offset"/>
                    </mxGeometry>
                </mxCell>
                <mxCell id="nnOfYmQvblicJ7rH4PoG-8" value="buttonPressed(powerButtonID)" style="edgeLabel;html=1;align=center;verticalAlign=middle;resizable=0;points=[];" parent="nnOfYmQvblicJ7rH4PoG-1" vertex="1" connectable="0">
                    <mxGeometry x="-0.2656" y="-1" relative="1" as="geometry">
                        <mxPoint as="offset"/>
                    </mxGeometry>
                </mxCell>
                <mxCell id="oDtMXYs0QCIHP4GKAs03-6" value="Power Button" style="swimlane;fontStyle=0;childLayout=stackLayout;horizontal=1;startSize=30;horizontalStack=0;resizeParent=1;resizeParentMax=0;resizeLast=0;collapsible=1;marginBottom=0;whiteSpace=wrap;html=1;autosize=0;comic=0;enumerate=0;moveCells=0;backgroundOutline=0;" parent="1" vertex="1">
                    <mxGeometry x="182" y="52" width="140" height="120" as="geometry"/>
                </mxCell>
                <mxCell id="oDtMXYs0QCIHP4GKAs03-7" value="Item 1" style="text;strokeColor=default;fillColor=none;align=left;verticalAlign=middle;spacingLeft=4;spacingRight=4;overflow=hidden;points=[[0,0.5],[1,0.5]];portConstraint=eastwest;rotatable=0;whiteSpace=wrap;html=1;" parent="oDtMXYs0QCIHP4GKAs03-6" vertex="1">
                    <mxGeometry y="30" width="140" height="30" as="geometry"/>
                </mxCell>
                <mxCell id="oDtMXYs0QCIHP4GKAs03-8" value="Item 2" style="text;strokeColor=default;fillColor=none;align=left;verticalAlign=middle;spacingLeft=4;spacingRight=4;overflow=hidden;points=[[0,0.5],[1,0.5]];portConstraint=eastwest;rotatable=0;whiteSpace=wrap;html=1;" parent="oDtMXYs0QCIHP4GKAs03-6" vertex="1">
                    <mxGeometry y="60" width="140" height="30" as="geometry"/>
                </mxCell>
                <mxCell id="oDtMXYs0QCIHP4GKAs03-9" value="Item 3" style="text;strokeColor=default;fillColor=none;align=left;verticalAlign=middle;spacingLeft=4;spacingRight=4;overflow=hidden;points=[[0,0.5],[1,0.5]];portConstraint=eastwest;rotatable=0;whiteSpace=wrap;html=1;" parent="oDtMXYs0QCIHP4GKAs03-6" vertex="1">
                    <mxGeometry y="90" width="140" height="30" as="geometry"/>
                </mxCell>
                <mxCell id="oDtMXYs0QCIHP4GKAs03-10" value="Selector Wheel" style="swimlane;fontStyle=0;childLayout=stackLayout;horizontal=1;startSize=30;horizontalStack=0;resizeParent=1;resizeParentMax=0;resizeLast=0;collapsible=1;marginBottom=0;whiteSpace=wrap;html=1;autosize=0;comic=0;enumerate=0;moveCells=0;backgroundOutline=0;" parent="1" vertex="1">
                    <mxGeometry x="182" y="521" width="140" height="120" as="geometry"/>
                </mxCell>
                <mxCell id="oDtMXYs0QCIHP4GKAs03-11" value="Item 1" style="text;strokeColor=default;fillColor=none;align=left;verticalAlign=middle;spacingLeft=4;spacingRight=4;overflow=hidden;points=[[0,0.5],[1,0.5]];portConstraint=eastwest;rotatable=0;whiteSpace=wrap;html=1;" parent="oDtMXYs0QCIHP4GKAs03-10" vertex="1">
                    <mxGeometry y="30" width="140" height="30" as="geometry"/>
                </mxCell>
                <mxCell id="oDtMXYs0QCIHP4GKAs03-12" value="Item 2" style="text;strokeColor=default;fillColor=none;align=left;verticalAlign=middle;spacingLeft=4;spacingRight=4;overflow=hidden;points=[[0,0.5],[1,0.5]];portConstraint=eastwest;rotatable=0;whiteSpace=wrap;html=1;" parent="oDtMXYs0QCIHP4GKAs03-10" vertex="1">
                    <mxGeometry y="60" width="140" height="30" as="geometry"/>
                </mxCell>
                <mxCell id="oDtMXYs0QCIHP4GKAs03-13" value="Item 3" style="text;strokeColor=default;fillColor=none;align=left;verticalAlign=middle;spacingLeft=4;spacingRight=4;overflow=hidden;points=[[0,0.5],[1,0.5]];portConstraint=eastwest;rotatable=0;whiteSpace=wrap;html=1;" parent="oDtMXYs0QCIHP4GKAs03-10" vertex="1">
                    <mxGeometry y="90" width="140" height="30" as="geometry"/>
                </mxCell>
                <mxCell id="oDtMXYs0QCIHP4GKAs03-14" value="Selector Button" style="swimlane;fontStyle=0;childLayout=stackLayout;horizontal=1;startSize=30;horizontalStack=0;resizeParent=1;resizeParentMax=0;resizeLast=0;collapsible=1;marginBottom=0;whiteSpace=wrap;html=1;autosize=0;comic=0;enumerate=0;moveCells=0;backgroundOutline=0;" parent="1" vertex="1">
                    <mxGeometry x="509" y="300" width="140" height="120" as="geometry"/>
                </mxCell>
                <mxCell id="oDtMXYs0QCIHP4GKAs03-15" value="Item 1" style="text;strokeColor=default;fillColor=none;align=left;verticalAlign=middle;spacingLeft=4;spacingRight=4;overflow=hidden;points=[[0,0.5],[1,0.5]];portConstraint=eastwest;rotatable=0;whiteSpace=wrap;html=1;" parent="oDtMXYs0QCIHP4GKAs03-14" vertex="1">
                    <mxGeometry y="30" width="140" height="30" as="geometry"/>
                </mxCell>
                <mxCell id="oDtMXYs0QCIHP4GKAs03-16" value="Item 2" style="text;strokeColor=default;fillColor=none;align=left;verticalAlign=middle;spacingLeft=4;spacingRight=4;overflow=hidden;points=[[0,0.5],[1,0.5]];portConstraint=eastwest;rotatable=0;whiteSpace=wrap;html=1;" parent="oDtMXYs0QCIHP4GKAs03-14" vertex="1">
                    <mxGeometry y="60" width="140" height="30" as="geometry"/>
                </mxCell>
                <mxCell id="oDtMXYs0QCIHP4GKAs03-17" value="Item 3" style="text;strokeColor=default;fillColor=none;align=left;verticalAlign=middle;spacingLeft=4;spacingRight=4;overflow=hidden;points=[[0,0.5],[1,0.5]];portConstraint=eastwest;rotatable=0;whiteSpace=wrap;html=1;" parent="oDtMXYs0QCIHP4GKAs03-14" vertex="1">
                    <mxGeometry y="90" width="140" height="30" as="geometry"/>
                </mxCell>
                <mxCell id="oDtMXYs0QCIHP4GKAs03-18" value="Radio Control Knob" style="swimlane;fontStyle=0;childLayout=stackLayout;horizontal=1;startSize=30;horizontalStack=0;resizeParent=1;resizeParentMax=0;resizeLast=0;collapsible=1;marginBottom=0;whiteSpace=wrap;html=1;autosize=0;comic=0;enumerate=0;moveCells=0;backgroundOutline=0;" parent="1" vertex="1">
                    <mxGeometry x="712" y="154" width="140" height="120" as="geometry"/>
                </mxCell>
                <mxCell id="oDtMXYs0QCIHP4GKAs03-19" value="Item 1" style="text;strokeColor=default;fillColor=none;align=left;verticalAlign=middle;spacingLeft=4;spacingRight=4;overflow=hidden;points=[[0,0.5],[1,0.5]];portConstraint=eastwest;rotatable=0;whiteSpace=wrap;html=1;" parent="oDtMXYs0QCIHP4GKAs03-18" vertex="1">
                    <mxGeometry y="30" width="140" height="30" as="geometry"/>
                </mxCell>
                <mxCell id="oDtMXYs0QCIHP4GKAs03-20" value="Item 2" style="text;strokeColor=default;fillColor=none;align=left;verticalAlign=middle;spacingLeft=4;spacingRight=4;overflow=hidden;points=[[0,0.5],[1,0.5]];portConstraint=eastwest;rotatable=0;whiteSpace=wrap;html=1;" parent="oDtMXYs0QCIHP4GKAs03-18" vertex="1">
                    <mxGeometry y="60" width="140" height="30" as="geometry"/>
                </mxCell>
                <mxCell id="oDtMXYs0QCIHP4GKAs03-21" value="Item 3" style="text;strokeColor=default;fillColor=none;align=left;verticalAlign=middle;spacingLeft=4;spacingRight=4;overflow=hidden;points=[[0,0.5],[1,0.5]];portConstraint=eastwest;rotatable=0;whiteSpace=wrap;html=1;" parent="oDtMXYs0QCIHP4GKAs03-18" vertex="1">
                    <mxGeometry y="90" width="140" height="30" as="geometry"/>
                </mxCell>
                <mxCell id="oDtMXYs0QCIHP4GKAs03-22" value="Small Control Knob" style="swimlane;fontStyle=0;childLayout=stackLayout;horizontal=1;startSize=30;horizontalStack=0;resizeParent=1;resizeParentMax=0;resizeLast=0;collapsible=1;marginBottom=0;whiteSpace=wrap;html=1;autosize=0;comic=0;enumerate=0;moveCells=0;backgroundOutline=0;" parent="1" vertex="1">
                    <mxGeometry x="509" y="493" width="140" height="120" as="geometry"/>
                </mxCell>
                <mxCell id="oDtMXYs0QCIHP4GKAs03-24" value="Item 2" style="text;strokeColor=default;fillColor=none;align=left;verticalAlign=middle;spacingLeft=4;spacingRight=4;overflow=hidden;points=[[0,0.5],[1,0.5]];portConstraint=eastwest;rotatable=0;whiteSpace=wrap;html=1;" parent="oDtMXYs0QCIHP4GKAs03-22" vertex="1">
                    <mxGeometry y="30" width="140" height="30" as="geometry"/>
                </mxCell>
                <mxCell id="oDtMXYs0QCIHP4GKAs03-25" value="Item 3" style="text;strokeColor=default;fillColor=none;align=left;verticalAlign=middle;spacingLeft=4;spacingRight=4;overflow=hidden;points=[[0,0.5],[1,0.5]];portConstraint=eastwest;rotatable=0;whiteSpace=wrap;html=1;" parent="oDtMXYs0QCIHP4GKAs03-22" vertex="1">
                    <mxGeometry y="60" width="140" height="30" as="geometry"/>
                </mxCell>
                <mxCell id="oDtMXYs0QCIHP4GKAs03-23" value="Item 1" style="text;strokeColor=default;fillColor=none;align=left;verticalAlign=middle;spacingLeft=4;spacingRight=4;overflow=hidden;points=[[0,0.5],[1,0.5]];portConstraint=eastwest;rotatable=0;whiteSpace=wrap;html=1;" parent="oDtMXYs0QCIHP4GKAs03-22" vertex="1">
                    <mxGeometry y="90" width="140" height="30" as="geometry"/>
                </mxCell>
                <mxCell id="oDtMXYs0QCIHP4GKAs03-26" value="Control Knob" style="swimlane;fontStyle=0;childLayout=stackLayout;horizontal=1;startSize=30;horizontalStack=0;resizeParent=1;resizeParentMax=0;resizeLast=0;collapsible=1;marginBottom=0;whiteSpace=wrap;html=1;autosize=0;comic=0;enumerate=0;moveCells=0;backgroundOutline=0;" parent="1" vertex="1">
                    <mxGeometry x="509" y="52" width="140" height="120" as="geometry"/>
                </mxCell>
                <mxCell id="oDtMXYs0QCIHP4GKAs03-27" value="Item 1" style="text;strokeColor=default;fillColor=none;align=left;verticalAlign=middle;spacingLeft=4;spacingRight=4;overflow=hidden;points=[[0,0.5],[1,0.5]];portConstraint=eastwest;rotatable=0;whiteSpace=wrap;html=1;" parent="oDtMXYs0QCIHP4GKAs03-26" vertex="1">
                    <mxGeometry y="30" width="140" height="30" as="geometry"/>
                </mxCell>
                <mxCell id="oDtMXYs0QCIHP4GKAs03-28" value="Item 2" style="text;strokeColor=default;fillColor=none;align=left;verticalAlign=middle;spacingLeft=4;spacingRight=4;overflow=hidden;points=[[0,0.5],[1,0.5]];portConstraint=eastwest;rotatable=0;whiteSpace=wrap;html=1;" parent="oDtMXYs0QCIHP4GKAs03-26" vertex="1">
                    <mxGeometry y="60" width="140" height="30" as="geometry"/>
                </mxCell>
                <mxCell id="oDtMXYs0QCIHP4GKAs03-29" value="Item 3" style="text;strokeColor=default;fillColor=none;align=left;verticalAlign=middle;spacingLeft=4;spacingRight=4;overflow=hidden;points=[[0,0.5],[1,0.5]];portConstraint=eastwest;rotatable=0;whiteSpace=wrap;html=1;" parent="oDtMXYs0QCIHP4GKAs03-26" vertex="1">
                    <mxGeometry y="90" width="140" height="30" as="geometry"/>
                </mxCell>
                <mxCell id="a_mR20tuXjC3Zlg9Piwa-8" style="edgeStyle=orthogonalEdgeStyle;rounded=0;orthogonalLoop=1;jettySize=auto;html=1;exitX=0.5;exitY=0;exitDx=0;exitDy=0;" parent="1" source="a_mR20tuXjC3Zlg9Piwa-1" target="TZVktLVVKrQjs7F4-dLv-15" edge="1">
                    <mxGeometry relative="1" as="geometry"/>
                </mxCell>
                <mxCell id="a_mR20tuXjC3Zlg9Piwa-9" value="update()&lt;br&gt;render()&lt;div&gt;handleInput(inputID[])&lt;/div&gt;" style="edgeLabel;html=1;align=center;verticalAlign=middle;resizable=0;points=[];" parent="a_mR20tuXjC3Zlg9Piwa-8" vertex="1" connectable="0">
                    <mxGeometry x="0.1688" y="2" relative="1" as="geometry">
                        <mxPoint as="offset"/>
                    </mxGeometry>
                </mxCell>
                <mxCell id="a_mR20tuXjC3Zlg9Piwa-1" value="Tab Manager" style="swimlane;fontStyle=0;childLayout=stackLayout;horizontal=1;startSize=30;horizontalStack=0;resizeParent=1;resizeParentMax=0;resizeLast=0;collapsible=1;marginBottom=0;whiteSpace=wrap;html=1;autosize=0;comic=0;enumerate=0;moveCells=0;backgroundOutline=0;" parent="1" vertex="1">
                    <mxGeometry x="-79" y="90" width="140" height="120" as="geometry"/>
                </mxCell>
                <mxCell id="a_mR20tuXjC3Zlg9Piwa-2" value="Item 1" style="text;strokeColor=default;fillColor=none;align=left;verticalAlign=middle;spacingLeft=4;spacingRight=4;overflow=hidden;points=[[0,0.5],[1,0.5]];portConstraint=eastwest;rotatable=0;whiteSpace=wrap;html=1;" parent="a_mR20tuXjC3Zlg9Piwa-1" vertex="1">
                    <mxGeometry y="30" width="140" height="30" as="geometry"/>
                </mxCell>
                <mxCell id="a_mR20tuXjC3Zlg9Piwa-3" value="Item 2" style="text;strokeColor=default;fillColor=none;align=left;verticalAlign=middle;spacingLeft=4;spacingRight=4;overflow=hidden;points=[[0,0.5],[1,0.5]];portConstraint=eastwest;rotatable=0;whiteSpace=wrap;html=1;" parent="a_mR20tuXjC3Zlg9Piwa-1" vertex="1">
                    <mxGeometry y="60" width="140" height="30" as="geometry"/>
                </mxCell>
                <mxCell id="a_mR20tuXjC3Zlg9Piwa-4" value="Item 3" style="text;strokeColor=default;fillColor=none;align=left;verticalAlign=middle;spacingLeft=4;spacingRight=4;overflow=hidden;points=[[0,0.5],[1,0.5]];portConstraint=eastwest;rotatable=0;whiteSpace=wrap;html=1;" parent="a_mR20tuXjC3Zlg9Piwa-1" vertex="1">
                    <mxGeometry y="90" width="140" height="30" as="geometry"/>
                </mxCell>
                <mxCell id="a_mR20tuXjC3Zlg9Piwa-17" value="Input Manager" style="swimlane;fontStyle=0;childLayout=stackLayout;horizontal=1;startSize=30;horizontalStack=0;resizeParent=1;resizeParentMax=0;resizeLast=0;collapsible=1;marginBottom=0;whiteSpace=wrap;html=1;autosize=0;comic=0;enumerate=0;moveCells=0;backgroundOutline=0;" parent="1" vertex="1">
                    <mxGeometry x="182" y="300" width="140" height="120" as="geometry"/>
                </mxCell>
                <mxCell id="a_mR20tuXjC3Zlg9Piwa-18" value="Item 1" style="text;strokeColor=default;fillColor=none;align=left;verticalAlign=middle;spacingLeft=4;spacingRight=4;overflow=hidden;points=[[0,0.5],[1,0.5]];portConstraint=eastwest;rotatable=0;whiteSpace=wrap;html=1;" parent="a_mR20tuXjC3Zlg9Piwa-17" vertex="1">
                    <mxGeometry y="30" width="140" height="30" as="geometry"/>
                </mxCell>
                <mxCell id="a_mR20tuXjC3Zlg9Piwa-19" value="Item 2" style="text;strokeColor=default;fillColor=none;align=left;verticalAlign=middle;spacingLeft=4;spacingRight=4;overflow=hidden;points=[[0,0.5],[1,0.5]];portConstraint=eastwest;rotatable=0;whiteSpace=wrap;html=1;" parent="a_mR20tuXjC3Zlg9Piwa-17" vertex="1">
                    <mxGeometry y="60" width="140" height="30" as="geometry"/>
                </mxCell>
                <mxCell id="a_mR20tuXjC3Zlg9Piwa-20" value="Item 3" style="text;strokeColor=default;fillColor=none;align=left;verticalAlign=middle;spacingLeft=4;spacingRight=4;overflow=hidden;points=[[0,0.5],[1,0.5]];portConstraint=eastwest;rotatable=0;whiteSpace=wrap;html=1;" parent="a_mR20tuXjC3Zlg9Piwa-17" vertex="1">
                    <mxGeometry y="90" width="140" height="30" as="geometry"/>
                </mxCell>
                <mxCell id="a_mR20tuXjC3Zlg9Piwa-21" value="" style="endArrow=classic;html=1;rounded=0;" parent="1" source="TZVktLVVKrQjs7F4-dLv-7" target="a_mR20tuXjC3Zlg9Piwa-17" edge="1">
                    <mxGeometry width="50" height="50" relative="1" as="geometry">
                        <mxPoint x="45" y="225" as="sourcePoint"/>
                        <mxPoint x="95" y="175" as="targetPoint"/>
                    </mxGeometry>
                </mxCell>
                <mxCell id="a_mR20tuXjC3Zlg9Piwa-34" value="pollInput(inputID[])" style="edgeLabel;html=1;align=center;verticalAlign=middle;resizable=0;points=[];" parent="a_mR20tuXjC3Zlg9Piwa-21" vertex="1" connectable="0">
                    <mxGeometry x="-0.6673" relative="1" as="geometry">
                        <mxPoint x="33" as="offset"/>
                    </mxGeometry>
                </mxCell>
                <mxCell id="a_mR20tuXjC3Zlg9Piwa-22" value="" style="endArrow=classic;html=1;rounded=0;" parent="1" source="TZVktLVVKrQjs7F4-dLv-7" target="oDtMXYs0QCIHP4GKAs03-2" edge="1">
                    <mxGeometry width="50" height="50" relative="1" as="geometry">
                        <mxPoint x="240" y="471" as="sourcePoint"/>
                        <mxPoint x="290" y="421" as="targetPoint"/>
                    </mxGeometry>
                </mxCell>
                <mxCell id="a_mR20tuXjC3Zlg9Piwa-33" value="playSound(soundID: int)&lt;div&gt;setVolume(level: int)&lt;/div&gt;&lt;div&gt;stopSound(soundID: int)&lt;/div&gt;" style="edgeLabel;html=1;align=center;verticalAlign=middle;resizable=0;points=[];" parent="a_mR20tuXjC3Zlg9Piwa-22" vertex="1" connectable="0">
                    <mxGeometry x="-0.1766" relative="1" as="geometry">
                        <mxPoint as="offset"/>
                    </mxGeometry>
                </mxCell>
                <mxCell id="a_mR20tuXjC3Zlg9Piwa-36" value="" style="endArrow=classic;html=1;rounded=0;" parent="1" source="TZVktLVVKrQjs7F4-dLv-15" target="TZVktLVVKrQjs7F4-dLv-35" edge="1">
                    <mxGeometry width="50" height="50" relative="1" as="geometry">
                        <mxPoint x="28" y="-28" as="sourcePoint"/>
                        <mxPoint x="78" y="-78" as="targetPoint"/>
                    </mxGeometry>
                </mxCell>
                <mxCell id="a_mR20tuXjC3Zlg9Piwa-37" value="" style="endArrow=classic;html=1;rounded=0;" parent="1" source="TZVktLVVKrQjs7F4-dLv-15" target="TZVktLVVKrQjs7F4-dLv-27" edge="1">
                    <mxGeometry width="50" height="50" relative="1" as="geometry">
                        <mxPoint x="28" y="-314" as="sourcePoint"/>
                        <mxPoint x="78" y="-364" as="targetPoint"/>
                    </mxGeometry>
                </mxCell>
                <mxCell id="a_mR20tuXjC3Zlg9Piwa-38" value="" style="endArrow=classic;html=1;rounded=0;" parent="1" source="TZVktLVVKrQjs7F4-dLv-15" target="TZVktLVVKrQjs7F4-dLv-23" edge="1">
                    <mxGeometry width="50" height="50" relative="1" as="geometry">
                        <mxPoint x="28" y="-243" as="sourcePoint"/>
                        <mxPoint x="78" y="-293" as="targetPoint"/>
                    </mxGeometry>
                </mxCell>
                <mxCell id="a_mR20tuXjC3Zlg9Piwa-39" value="" style="endArrow=classic;html=1;rounded=0;" parent="1" source="TZVktLVVKrQjs7F4-dLv-15" target="TZVktLVVKrQjs7F4-dLv-19" edge="1">
                    <mxGeometry width="50" height="50" relative="1" as="geometry">
                        <mxPoint x="28" y="-243" as="sourcePoint"/>
                        <mxPoint x="78" y="-293" as="targetPoint"/>
                    </mxGeometry>
                </mxCell>
                <mxCell id="a_mR20tuXjC3Zlg9Piwa-40" value="" style="endArrow=classic;html=1;rounded=0;" parent="1" source="TZVktLVVKrQjs7F4-dLv-15" target="TZVktLVVKrQjs7F4-dLv-31" edge="1">
                    <mxGeometry width="50" height="50" relative="1" as="geometry">
                        <mxPoint x="28" y="-243" as="sourcePoint"/>
                        <mxPoint x="78" y="-293" as="targetPoint"/>
                    </mxGeometry>
                </mxCell>
                <mxCell id="nnOfYmQvblicJ7rH4PoG-2" value="" style="endArrow=classic;html=1;rounded=0;" parent="1" source="oDtMXYs0QCIHP4GKAs03-10" target="a_mR20tuXjC3Zlg9Piwa-17" edge="1">
                    <mxGeometry width="50" height="50" relative="1" as="geometry">
                        <mxPoint x="205" y="445" as="sourcePoint"/>
                        <mxPoint x="255" y="395" as="targetPoint"/>
                    </mxGeometry>
                </mxCell>
                <mxCell id="nnOfYmQvblicJ7rH4PoG-9" value="rotationCounter(selectorWheelID)" style="edgeLabel;html=1;align=center;verticalAlign=middle;resizable=0;points=[];" parent="nnOfYmQvblicJ7rH4PoG-2" vertex="1" connectable="0">
                    <mxGeometry x="0.1089" y="-4" relative="1" as="geometry">
                        <mxPoint y="9" as="offset"/>
                    </mxGeometry>
                </mxCell>
                <mxCell id="nnOfYmQvblicJ7rH4PoG-3" value="" style="endArrow=classic;html=1;rounded=0;" parent="1" source="oDtMXYs0QCIHP4GKAs03-22" target="a_mR20tuXjC3Zlg9Piwa-17" edge="1">
                    <mxGeometry width="50" height="50" relative="1" as="geometry">
                        <mxPoint x="205" y="445" as="sourcePoint"/>
                        <mxPoint x="255" y="395" as="targetPoint"/>
                    </mxGeometry>
                </mxCell>
                <mxCell id="nnOfYmQvblicJ7rH4PoG-10" value="rotationCounter(smallControlID)" style="edgeLabel;html=1;align=center;verticalAlign=middle;resizable=0;points=[];" parent="nnOfYmQvblicJ7rH4PoG-3" vertex="1" connectable="0">
                    <mxGeometry x="0.0759" y="1" relative="1" as="geometry">
                        <mxPoint x="7" y="-1" as="offset"/>
                    </mxGeometry>
                </mxCell>
                <mxCell id="nnOfYmQvblicJ7rH4PoG-4" value="" style="endArrow=classic;html=1;rounded=0;" parent="1" source="oDtMXYs0QCIHP4GKAs03-14" target="a_mR20tuXjC3Zlg9Piwa-17" edge="1">
                    <mxGeometry width="50" height="50" relative="1" as="geometry">
                        <mxPoint x="205" y="445" as="sourcePoint"/>
                        <mxPoint x="255" y="395" as="targetPoint"/>
                    </mxGeometry>
                </mxCell>
                <mxCell id="nnOfYmQvblicJ7rH4PoG-6" value="buttonPressed(selectorButtonID)" style="edgeLabel;html=1;align=center;verticalAlign=middle;resizable=0;points=[];" parent="nnOfYmQvblicJ7rH4PoG-4" vertex="1" connectable="0">
                    <mxGeometry x="0.4251" relative="1" as="geometry">
                        <mxPoint x="42" as="offset"/>
                    </mxGeometry>
                </mxCell>
                <mxCell id="nnOfYmQvblicJ7rH4PoG-5" value="" style="endArrow=classic;html=1;rounded=0;" parent="1" source="oDtMXYs0QCIHP4GKAs03-26" target="a_mR20tuXjC3Zlg9Piwa-17" edge="1">
                    <mxGeometry width="50" height="50" relative="1" as="geometry">
                        <mxPoint x="361" y="284" as="sourcePoint"/>
                        <mxPoint x="411" y="234" as="targetPoint"/>
                    </mxGeometry>
                </mxCell>
                <mxCell id="nnOfYmQvblicJ7rH4PoG-11" value="rotationCounter(controlID)" style="edgeLabel;html=1;align=center;verticalAlign=middle;resizable=0;points=[];" parent="nnOfYmQvblicJ7rH4PoG-5" vertex="1" connectable="0">
                    <mxGeometry x="-0.0563" y="-1" relative="1" as="geometry">
                        <mxPoint as="offset"/>
                    </mxGeometry>
                </mxCell>
                <mxCell id="2SlRL9LxCdO5uRKpT4zU-1" style="rounded=0;orthogonalLoop=1;jettySize=auto;html=1;exitX=0;exitY=0.5;exitDx=0;exitDy=0;" parent="1" source="oDtMXYs0QCIHP4GKAs03-20" target="a_mR20tuXjC3Zlg9Piwa-17" edge="1">
                    <mxGeometry relative="1" as="geometry"/>
                </mxCell>
            </root>
        </mxGraphModel>
    </diagram>
</mxfile>